HIERARCHY
ROOT Hips
{
	OFFSET 0.000000 97.167313 0.000000
	CHANNELS 6 Xposition Yposition Zposition Xrotation Yrotation Zrotation
	JOINT Spine
	{
		OFFSET 0.000000 13.784798 0.064400
		CHANNELS 3 Xrotation Yrotation Zrotation
		JOINT Spine1
		{
			OFFSET 0.000000 12.037903 0.404700
			CHANNELS 3 Xrotation Yrotation Zrotation
			JOINT Spine2
			{
				OFFSET 0.000000 17.795601 0.420200
				CHANNELS 3 Xrotation Yrotation Zrotation
				JOINT Neck
				{
					OFFSET 0.000000 39.131302 11.954600
					CHANNELS 3 Xrotation Yrotation Zrotation
					JOINT Head
					{
						OFFSET 0.000000 14.456192 15.627699
						CHANNELS 3 Xrotation Yrotation Zrotation
						JOINT HeadTop_End
						{
							OFFSET 0.000000 15.703506 7.603401
							CHANNELS 3 Xrotation Yrotation Zrotation
							End Site
							{
								OFFSET 0.000000 17.447403 0.000000
							}
						}
					}
				}
				JOINT LeftShoulder
				{
					OFFSET 17.399500 24.608795 1.168800
					CHANNELS 3 Xrotation Yrotation Zrotation
					JOINT LeftArm
					{
						OFFSET 18.980635 5.765305 1.818600
						CHANNELS 3 Xrotation Yrotation Zrotation
						JOINT LeftForeArm
						{
							OFFSET 49.290169 0.000000 0.000000
							CHANNELS 3 Xrotation Yrotation Zrotation
							JOINT LeftHand
							{
								OFFSET 31.562012 0.000000 0.000000
								CHANNELS 3 Xrotation Yrotation Zrotation
								JOINT LeftHandThumb1
								{
									OFFSET 6.133995 -4.388519 7.076070
									CHANNELS 3 Xrotation Yrotation Zrotation
									JOINT LeftHandThumb2
									{
										OFFSET 6.037666 -3.485840 3.485847
										CHANNELS 3 Xrotation Yrotation Zrotation
										JOINT LeftHandThumb3
										{
											OFFSET 6.496506 -3.750763 3.750761
											CHANNELS 3 Xrotation Yrotation Zrotation
											JOINT LeftHandThumb4
											{
												OFFSET 5.616882 -3.242905 3.242910
												CHANNELS 3 Xrotation Yrotation Zrotation
												End Site
												{
													OFFSET -1.254608 7.132141 0.375429
												}
											}
										}
									}
								}
								JOINT LeftHandPinky1
								{
									OFFSET 18.920792 -0.453171 -11.426712
									CHANNELS 3 Xrotation Yrotation Zrotation
									JOINT LeftHandPinky2
									{
										OFFSET 4.919586 0.000000 0.000000
										CHANNELS 3 Xrotation Yrotation Zrotation
										JOINT LeftHandPinky3
										{
											OFFSET 5.233047 0.000000 0.000000
											CHANNELS 3 Xrotation Yrotation Zrotation
											JOINT LeftHandPinky4
											{
												OFFSET 5.571716 0.000000 0.000000
												CHANNELS 3 Xrotation Yrotation Zrotation
												End Site
												{
													OFFSET -3.459808 4.342407 -0.466164
												}
											}
										}
									}
								}
								JOINT LeftHandRing1
								{
									OFFSET 22.726120 -0.094986 -6.500475
									CHANNELS 3 Xrotation Yrotation Zrotation
									JOINT LeftHandRing2
									{
										OFFSET 6.408615 0.000000 0.000000
										CHANNELS 3 Xrotation Yrotation Zrotation
										JOINT LeftHandRing3
										{
											OFFSET 6.150223 0.000000 0.000000
											CHANNELS 3 Xrotation Yrotation Zrotation
											JOINT LeftHandRing4
											{
												OFFSET 6.145386 0.000000 0.000000
												CHANNELS 3 Xrotation Yrotation Zrotation
												End Site
												{
													OFFSET -3.671402 4.923981 -0.202372
												}
											}
										}
									}
								}
								JOINT LeftHandMiddle1
								{
									OFFSET 23.373947 0.000000 0.000001
									CHANNELS 3 Xrotation Yrotation Zrotation
									JOINT LeftHandMiddle2
									{
										OFFSET 6.996567 0.000000 0.000000
										CHANNELS 3 Xrotation Yrotation Zrotation
										JOINT LeftHandMiddle3
										{
											OFFSET 7.015945 0.000000 0.000000
											CHANNELS 3 Xrotation Yrotation Zrotation
											JOINT LeftHandMiddle4
											{
												OFFSET 7.721573 0.000000 0.000000
												CHANNELS 3 Xrotation Yrotation Zrotation
												End Site
												{
													OFFSET -4.651108 6.158463 0.251582
												}
											}
										}
									}
								}
								JOINT LeftHandIndex1
								{
									OFFSET 21.310577 -0.490082 6.209344
									CHANNELS 3 Xrotation Yrotation Zrotation
									JOINT LeftHandIndex2
									{
										OFFSET 7.536453 0.000000 0.000000
										CHANNELS 3 Xrotation Yrotation Zrotation
										JOINT LeftHandIndex3
										{
											OFFSET 7.512344 0.000000 0.000000
											CHANNELS 3 Xrotation Yrotation Zrotation
											JOINT LeftHandIndex4
											{
												OFFSET 10.212402 0.000000 0.000001
												CHANNELS 3 Xrotation Yrotation Zrotation
												End Site
												{
													OFFSET -5.180801 8.690506 1.388433
												}
											}
										}
									}
								}
							}
						}
					}
				}
				JOINT RightShoulder
				{
					OFFSET -17.399500 24.608795 1.168800
					CHANNELS 3 Xrotation Yrotation Zrotation
					JOINT RightArm
					{
						OFFSET -18.980635 5.765305 1.818600
						CHANNELS 3 Xrotation Yrotation Zrotation
						JOINT RightForeArm
						{
							OFFSET -49.290169 0.000000 0.000000
							CHANNELS 3 Xrotation Yrotation Zrotation
							JOINT RightHand
							{
								OFFSET -31.562012 0.000000 0.000000
								CHANNELS 3 Xrotation Yrotation Zrotation
								JOINT RightHandThumb1
								{
									OFFSET -6.133995 -4.388519 7.076070
									CHANNELS 3 Xrotation Yrotation Zrotation
									JOINT RightHandThumb2
									{
										OFFSET -6.037666 -3.485840 3.485847
										CHANNELS 3 Xrotation Yrotation Zrotation
										JOINT RightHandThumb3
										{
											OFFSET -6.496506 -3.750763 3.750761
											CHANNELS 3 Xrotation Yrotation Zrotation
											JOINT RightHandThumb4
											{
												OFFSET -5.616882 -3.242905 3.242910
												CHANNELS 3 Xrotation Yrotation Zrotation
												End Site
												{
													OFFSET 1.254608 7.132141 0.375429
												}
											}
										}
									}
								}
								JOINT RightHandIndex1
								{
									OFFSET -21.310577 -0.490082 6.209344
									CHANNELS 3 Xrotation Yrotation Zrotation
									JOINT RightHandIndex2
									{
										OFFSET -7.536453 0.000000 0.000000
										CHANNELS 3 Xrotation Yrotation Zrotation
										JOINT RightHandIndex3
										{
											OFFSET -7.512344 0.000000 0.000000
											CHANNELS 3 Xrotation Yrotation Zrotation
											JOINT RightHandIndex4
											{
												OFFSET -10.212402 0.000000 0.000001
												CHANNELS 3 Xrotation Yrotation Zrotation
												End Site
												{
													OFFSET 5.180801 8.690506 1.388433
												}
											}
										}
									}
								}
								JOINT RightHandMiddle1
								{
									OFFSET -23.373947 0.000000 0.000001
									CHANNELS 3 Xrotation Yrotation Zrotation
									JOINT RightHandMiddle2
									{
										OFFSET -6.996567 0.000000 0.000000
										CHANNELS 3 Xrotation Yrotation Zrotation
										JOINT RightHandMiddle3
										{
											OFFSET -7.015945 0.000000 0.000000
											CHANNELS 3 Xrotation Yrotation Zrotation
											JOINT RightHandMiddle4
											{
												OFFSET -7.721573 0.000000 0.000000
												CHANNELS 3 Xrotation Yrotation Zrotation
												End Site
												{
													OFFSET 4.651108 6.158463 0.251582
												}
											}
										}
									}
								}
								JOINT RightHandRing1
								{
									OFFSET -22.726120 -0.094986 -6.500475
									CHANNELS 3 Xrotation Yrotation Zrotation
									JOINT RightHandRing2
									{
										OFFSET -6.408615 0.000000 0.000000
										CHANNELS 3 Xrotation Yrotation Zrotation
										JOINT RightHandRing3
										{
											OFFSET -6.150223 0.000000 0.000000
											CHANNELS 3 Xrotation Yrotation Zrotation
											JOINT RightHandRing4
											{
												OFFSET -6.145386 0.000000 0.000000
												CHANNELS 3 Xrotation Yrotation Zrotation
												End Site
												{
													OFFSET 3.671402 4.923981 -0.202372
												}
											}
										}
									}
								}
								JOINT RightHandPinky1
								{
									OFFSET -18.920792 -0.453171 -11.426712
									CHANNELS 3 Xrotation Yrotation Zrotation
									JOINT RightHandPinky2
									{
										OFFSET -4.919586 0.000000 0.000000
										CHANNELS 3 Xrotation Yrotation Zrotation
										JOINT RightHandPinky3
										{
											OFFSET -5.233047 0.000000 0.000000
											CHANNELS 3 Xrotation Yrotation Zrotation
											JOINT RightHandPinky4
											{
												OFFSET -5.571716 0.000000 0.000000
												CHANNELS 3 Xrotation Yrotation Zrotation
												End Site
												{
													OFFSET 3.459808 4.342407 -0.466164
												}
											}
										}
									}
								}
							}
						}
					}
				}
			}
		}
	}
	JOINT LeftUpLeg
	{
		OFFSET 19.899099 -7.885101 -3.429500
		CHANNELS 3 Xrotation Yrotation Zrotation
		JOINT LeftLeg
		{
			OFFSET 1.745560 -36.997807 10.304700
			CHANNELS 3 Xrotation Yrotation Zrotation
			JOINT LeftFoot
			{
				OFFSET -1.745558 -29.803308 -13.615400
				CHANNELS 3 Xrotation Yrotation Zrotation
				JOINT LeftToeBase
				{
					OFFSET 1.181900 -18.539904 15.226099
					CHANNELS 3 Xrotation Yrotation Zrotation
					JOINT LeftToe_End
					{
						OFFSET -0.863701 1.402801 16.534700
						CHANNELS 3 Xrotation Yrotation Zrotation
						End Site
						{
							OFFSET 0.000000 16.616566 0.000000
						}
					}
				}
			}
		}
	}
	JOINT RightUpLeg
	{
		OFFSET -19.899099 -7.885101 -3.429500
		CHANNELS 3 Xrotation Yrotation Zrotation
		JOINT RightLeg
		{
			OFFSET -1.745560 -36.997807 10.304700
			CHANNELS 3 Xrotation Yrotation Zrotation
			JOINT RightFoot
			{
				OFFSET 1.745558 -29.803308 -13.615400
				CHANNELS 3 Xrotation Yrotation Zrotation
				JOINT RightToeBase
				{
					OFFSET -1.181900 -18.539904 15.226099
					CHANNELS 3 Xrotation Yrotation Zrotation
					JOINT RightToe_End
					{
						OFFSET 0.863701 1.402801 16.534700
						CHANNELS 3 Xrotation Yrotation Zrotation
						End Site
						{
							OFFSET 0.000000 16.616566 0.000000
						}
					}
				}
			}
		}
	}
}
MOTION
Frames: 5
Frame Time: 0.033333
0.859188 73.608643 3.899725 32.294582 -77.486386 29.989503 6.222862 0.128344 -3.126074 0.977213 0.513829 2.629921 -0.021677 0.383981 1.345003 -0.446209 -4.920356 -1.568036 -2.380758 -21.884922 3.171739 0.000001 0.000001 0.000000 -2.364082 -9.098152 -4.195219 0.111236 -2.851894 -42.391979 -103.216685 -56.092464 -101.871834 -0.505667 -0.114873 -4.538511 4.766507 -0.870674 -14.442461 15.732333 12.674837 8.828577 63.207056 -8.275014 4.266038 0.000001 -0.000000 -0.000001 -8.868653 8.263629 -85.753865 -0.047920 -0.066874 -74.105654 -0.018477 -0.051641 -48.548776 -0.000001 0.000004 -0.000005 -4.480777 3.914188 -90.412525 -1.097251 -0.675696 -62.310716 -0.104344 1.185548 -72.505853 -0.000000 -0.000000 0.000005 -5.483658 2.419530 -86.651004 -0.068341 -4.897276 -76.605517 1.509523 0.538131 -67.243301 -0.000000 -0.000000 0.000008 -3.610963 -7.817630 -81.262667 0.005173 -4.388534 -67.459060 1.852074 0.687173 -69.585824 -0.000001 0.000003 0.000002 -7.914683 -21.635784 1.135872 10.331934 4.480236 50.694709 -3.259708 58.890028 8.603931 0.851482 13.221330 -4.265831 24.918366 -21.323355 30.343030 9.041921 8.262109 -18.001799 -16.109841 -19.128874 -12.401647 -0.000001 -0.000001 0.000002 -0.070711 -3.035175 61.424178 0.006475 4.395139 66.609193 1.919189 -0.429135 59.456667 0.000000 -0.000001 -0.000001 -1.235392 -0.119458 68.274270 -0.077292 4.902834 84.501885 0.918983 -1.334264 32.710268 0.000001 0.000004 -0.000008 0.883171 -4.613460 79.192929 -0.717787 1.136492 73.255773 -0.065387 -1.198591 39.144374 0.000002 0.000004 -0.000005 -3.944557 0.100022 86.764767 -0.029790 0.060139 54.415144 -0.007563 0.030596 25.829827 -0.000000 0.000003 0.000003 -67.394979 31.647962 68.467613 49.215444 -14.593280 2.398399 -3.079073 3.608092 -17.987100 -2.525216 -3.753837 4.098986 0.000000 0.000000 -0.000000 -43.422477 -10.991436 -41.828017 24.747276 21.816724 -0.888089 6.507534 -2.272228 33.389817 -1.369718 0.621648 -0.987367 -0.000000 0.000000 -0.000000 
1.002054 73.671425 4.102822 36.855660 -78.830724 34.544078 6.123484 -0.152556 -2.970902 0.980114 0.433299 2.655501 -0.017958 0.302741 1.369540 -0.297837 -4.918463 -1.430729 -2.040347 -21.806065 3.181561 0.000000 0.000000 0.000000 -2.380466 -9.259143 -4.156453 -0.338683 -3.643861 -42.412633 -102.306631 -56.072885 -100.749641 -0.426395 -0.089695 -4.968686 4.766513 -0.870680 -14.442461 15.732333 12.674833 8.828577 63.207062 -8.275015 4.266038 0.000000 0.000001 -0.000001 -8.868653 8.263626 -85.753865 -0.047925 -0.066874 -74.105654 -0.018477 -0.051639 -48.548776 0.000000 -0.000001 -0.000002 -4.480775 3.914185 -90.412525 -1.097254 -0.675697 -62.310716 -0.104343 1.185548 -72.505859 -0.000000 -0.000001 0.000005 -5.483658 2.419529 -86.651010 -0.068341 -4.897279 -76.605523 1.509521 0.538134 -67.243308 -0.000001 -0.000001 0.000008 -3.610968 -7.817631 -81.262667 0.005174 -4.388534 -67.459067 1.852073 0.687174 -69.585824 -0.000001 -0.000000 0.000001 -7.882982 -21.803046 1.184714 11.240897 4.279472 50.896698 -4.984575 59.207734 10.169028 0.907051 13.916122 -3.503990 24.918362 -21.323361 30.343027 9.041917 8.262106 -18.001799 -16.109853 -19.128877 -12.401650 -0.000000 -0.000000 -0.000002 -0.070715 -3.035173 61.424171 0.006476 4.395140 66.609193 1.919191 -0.429133 59.456660 -0.000002 0.000000 0.000004 -1.235396 -0.119462 68.274264 -0.077295 4.902834 84.501885 0.918980 -1.334259 32.710271 -0.000001 0.000004 -0.000003 0.883168 -4.613461 79.192922 -0.717779 1.136490 73.255766 -0.065393 -1.198595 39.144381 0.000000 0.000001 -0.000005 -3.944560 0.100023 86.764767 -0.029792 0.060139 54.415144 -0.007554 0.030593 25.829829 -0.000001 0.000000 0.000004 -67.116519 32.533171 69.619763 49.289394 -14.250155 2.310830 -3.831010 3.878309 -18.485022 -2.525216 -3.753837 4.098986 -0.000000 -0.000001 -0.000000 -44.044355 -10.338847 -40.883149 23.592773 22.257099 -0.831803 7.864544 -1.836248 33.420645 -1.369718 0.621648 -0.987367 -0.000000 -0.000000 -0.000000 
1.141938 73.733391 4.303818 41.604854 -79.886535 39.292173 6.038050 -0.446011 -2.827190 0.983811 0.349337 2.680347 -0.013431 0.218193 1.393285 -0.132290 -4.957371 -1.294093 -1.687445 -21.859141 3.233613 0.000001 -0.000000 -0.000000 -2.414532 -9.407324 -4.282876 -0.668895 -4.419595 -42.402388 -101.693635 -55.650988 -99.654591 -0.348607 -0.058604 -5.273108 4.766509 -0.870674 -14.442462 15.732332 12.674828 8.828574 63.207062 -8.275015 4.266038 0.000001 -0.000000 -0.000001 -8.868654 8.263629 -85.753858 -0.047918 -0.066874 -74.105654 -0.018477 -0.051641 -48.548773 0.000002 0.000001 0.000001 -4.480776 3.914188 -90.412525 -1.097253 -0.675696 -62.310716 -0.104345 1.185546 -72.505853 0.000001 0.000001 -0.000002 -5.483658 2.419532 -86.651004 -0.068340 -4.897278 -76.605523 1.509521 0.538131 -67.243301 0.000000 -0.000001 0.000002 -3.610966 -7.817629 -81.262674 0.005174 -4.388535 -67.459067 1.852073 0.687176 -69.585824 -0.000000 0.000002 -0.000004 -7.866707 -22.000063 1.192849 11.962389 4.223195 51.174011 -6.566268 59.415262 11.554615 0.884924 14.515398 -2.800928 24.918361 -21.323352 30.343027 9.041925 8.262113 -18.001793 -16.109845 -19.128877 -12.401645 0.000001 -0.000002 0.000002 -0.070712 -3.035174 61.424178 0.006476 4.395140 66.609193 1.919200 -0.429130 59.456660 0.000001 -0.000003 0.000003 -1.235398 -0.119464 68.274270 -0.077294 4.902839 84.501878 0.918980 -1.334259 32.710275 -0.000000 -0.000003 -0.000009 0.883167 -4.613461 79.192929 -0.717788 1.136490 73.255773 -0.065391 -1.198594 39.144374 -0.000001 0.000001 -0.000005 -3.944557 0.100020 86.764767 -0.029786 0.060140 54.415147 -0.007556 0.030596 25.829825 0.000000 0.000001 0.000002 -66.848858 33.314149 70.506766 49.347533 -13.911519 2.242532 -4.480462 4.113624 -18.906599 -2.525216 -3.753836 4.098986 -0.000000 -0.000001 0.000000 -44.483598 -9.802901 -40.080476 22.454464 22.578683 -0.766241 9.083219 -1.452357 33.515352 -1.369718 0.621648 -0.987367 0.000000 -0.000000 -0.000000 
1.267560 73.778770 4.490745 46.759899 -80.781856 44.430159 5.997133 -0.713962 -2.696549 0.987673 0.273201 2.706708 -0.008992 0.141326 1.418697 0.061902 -5.005334 -1.136076 -1.414077 -21.928520 3.260735 -0.000000 0.000002 -0.000000 -2.443197 -9.549969 -4.378007 -0.829514 -5.162141 -42.524027 -101.266482 -55.525972 -98.831341 -0.282831 0.002895 -5.510059 4.766512 -0.870677 -14.442459 15.732332 12.674833 8.828580 63.207062 -8.275014 4.266038 0.000001 0.000001 0.000000 -8.868653 8.263626 -85.753865 -0.047922 -0.066878 -74.105654 -0.018472 -0.051641 -48.548776 0.000001 -0.000003 -0.000003 -4.480777 3.914184 -90.412525 -1.097254 -0.675696 -62.310723 -0.104345 1.185545 -72.505859 -0.000001 0.000000 0.000005 -5.483663 2.419528 -86.651004 -0.068341 -4.897276 -76.605523 1.509523 0.538130 -67.243301 0.000002 -0.000000 0.000004 -3.610971 -7.817630 -81.262667 0.005173 -4.388536 -67.459060 1.852073 0.687174 -69.585817 0.000000 0.000001 0.000002 -7.849307 -22.126080 1.214334 12.500878 4.167584 51.479498 -8.066912 59.446442 12.850358 0.802618 14.940019 -2.488240 24.918367 -21.323357 30.343023 9.041924 8.262107 -18.001793 -16.109846 -19.128877 -12.401645 0.000001 -0.000003 0.000003 -0.070707 -3.035174 61.424171 0.006472 4.395138 66.609193 1.919190 -0.429132 59.456660 -0.000004 -0.000001 -0.000001 -1.235396 -0.119461 68.274270 -0.077295 4.902835 84.501885 0.918982 -1.334262 32.710264 -0.000000 0.000004 -0.000001 0.883168 -4.613459 79.192922 -0.717787 1.136493 73.255773 -0.065398 -1.198590 39.144374 -0.000000 -0.000002 -0.000003 -3.944557 0.100027 86.764767 -0.029789 0.060140 54.415144 -0.007556 0.030593 25.829829 0.000002 0.000000 0.000000 -66.474509 33.979337 71.217016 49.408677 -13.518635 2.181355 -5.079460 4.347049 -19.366687 -2.525216 -3.753836 4.098986 -0.000000 -0.000001 -0.000000 -44.837545 -9.346913 -39.329407 21.377606 22.868653 -0.700024 10.197012 -1.102642 33.620483 -1.369718 0.621648 -0.987367 -0.000000 -0.000000 -0.000000 
1.370016 73.795044 4.638254 52.173192 -81.482060 49.806528 5.984172 -0.924451 -2.613894 0.992671 0.215457 2.735956 -0.004406 0.082791 1.447266 0.241360 -5.064233 -0.987199 -1.232062 -22.030644 3.233860 -0.000000 0.000001 -0.000000 -2.467528 -9.687875 -4.480234 -0.797976 -5.773498 -42.673847 -101.097284 -55.655718 -98.430102 -0.207297 0.086584 -5.765297 4.766511 -0.870678 -14.442461 15.732335 12.674832 8.828570 63.207056 -8.275018 4.266038 0.000000 0.000001 0.000000 -8.868657 8.263630 -85.753865 -0.047922 -0.066873 -74.105654 -0.018478 -0.051639 -48.548776 0.000001 -0.000000 -0.000007 -4.480777 3.914186 -90.412519 -1.097255 -0.675697 -62.310716 -0.104344 1.185548 -72.505859 -0.000000 -0.000001 0.000007 -5.483660 2.419530 -86.651010 -0.068341 -4.897276 -76.605523 1.509522 0.538133 -67.243308 0.000003 -0.000000 0.000008 -3.610964 -7.817629 -81.262674 0.005171 -4.388535 -67.459060 1.852074 0.687174 -69.585824 -0.000001 0.000003 0.000002 -7.869542 -22.223953 1.152186 12.917030 4.182597 51.881868 -9.900601 59.288883 14.414028 0.746054 15.206098 -2.553274 24.918364 -21.323357 30.343023 9.041925 8.262104 -18.001799 -16.109846 -19.128879 -12.401653 -0.000000 0.000000 -0.000001 -0.070711 -3.035173 61.424171 0.006472 4.395140 66.609193 1.919199 -0.429130 59.456667 0.000001 -0.000005 0.000001 -1.235397 -0.119459 68.274270 -0.077285 4.902840 84.501885 0.918976 -1.334259 32.710271 0.000002 0.000001 -0.000004 0.883169 -4.613460 79.192922 -0.717783 1.136491 73.255773 -0.065397 -1.198589 39.144378 -0.000001 0.000001 -0.000001 -3.944558 0.100023 86.764760 -0.029792 0.060136 54.415144 -0.007559 0.030598 25.829827 0.000001 -0.000001 -0.000001 -66.036072 34.485372 71.750099 49.475097 -13.090408 2.126330 -5.592754 4.572817 -19.861659 -2.525216 -3.753837 4.098986 0.000000 -0.000001 0.000000 -45.143493 -8.943576 -38.637786 20.472946 23.105109 -0.643778 11.138574 -0.807663 33.713961 -1.369718 0.621648 -0.987367 -0.000000 0.000000 -0.000000 
